<svg width="808" height="808" viewBox="0 0 808 808" fill="none" xmlns="http://www.w3.org/2000/svg">
<g filter="url(#filter0_b_8_41)">
<path d="M4 265.6C4 46.8784 50.8784 0 269.6 0H538.4C757.122 0 804 46.8784 804 265.6V534.4C804 753.122 757.122 800 538.4 800H269.6C50.8784 800 4 753.122 4 534.4V265.6Z" fill="white" fill-opacity="0.77"/>
<g filter="url(#filter1_d_8_41)">
<path d="M4 265.6C4 46.8784 50.8784 0 269.6 0H538.4C757.122 0 804 46.8784 804 265.6V534.4C804 753.122 757.122 800 538.4 800H269.6C50.8784 800 4 753.122 4 534.4V265.6Z" fill="url(#paint0_linear_8_41)" fill-opacity="0.33" shape-rendering="crispEdges"/>
<path d="M20 265.6C20 211.285 22.9312 168.73 30.3612 135.298C37.7508 102.048 49.376 78.8103 66.0931 62.0931C82.8103 45.376 106.048 33.7508 139.298 26.3612C172.73 18.9312 215.285 16 269.6 16H538.4C592.715 16 635.27 18.9312 668.702 26.3612C701.952 33.7508 725.19 45.376 741.907 62.0931C758.624 78.8103 770.249 102.048 777.639 135.298C785.069 168.73 788 211.285 788 265.6V534.4C788 588.715 785.069 631.27 777.639 664.702C770.249 697.952 758.624 721.19 741.907 737.907C725.19 754.624 701.952 766.249 668.702 773.639C635.27 781.069 592.715 784 538.4 784H269.6C215.285 784 172.73 781.069 139.298 773.639C106.048 766.249 82.8103 754.624 66.0931 737.907C49.376 721.19 37.7508 697.952 30.3612 664.702C22.9312 631.27 20 588.715 20 534.4V265.6Z" stroke="url(#paint1_linear_8_41)" stroke-width="32" shape-rendering="crispEdges"/>
</g>
<g opacity="0.15" filter="url(#filter2_d_8_41)">
<path d="M137.333 233.333L404 100L670.667 233.333C670.667 406.44 577.857 650.327 404 700C230.143 650.327 137.333 406.44 137.333 233.333Z" fill="url(#paint2_linear_8_41)"/>
</g>
<path d="M137.334 233.333L404.001 100L670.667 233.333C670.667 406.44 577.857 650.327 404.001 700C230.143 650.327 137.334 406.44 137.334 233.333Z" stroke="url(#paint3_linear_8_41)" stroke-width="50" stroke-linecap="round" stroke-linejoin="round"/>
</g>
<defs>
<filter id="filter0_b_8_41" x="-21" y="-25" width="850" height="850" filterUnits="userSpaceOnUse" color-interpolation-filters="sRGB">
<feFlood flood-opacity="0" result="BackgroundImageFix"/>
<feGaussianBlur in="BackgroundImageFix" stdDeviation="12.5"/>
<feComposite in2="SourceAlpha" operator="in" result="effect1_backgroundBlur_8_41"/>
<feBlend mode="normal" in="SourceGraphic" in2="effect1_backgroundBlur_8_41" result="shape"/>
</filter>
<filter id="filter1_d_8_41" x="0" y="0" width="808" height="808" filterUnits="userSpaceOnUse" color-interpolation-filters="sRGB">
<feFlood flood-opacity="0" result="BackgroundImageFix"/>
<feColorMatrix in="SourceAlpha" type="matrix" values="0 0 0 0 0 0 0 0 0 0 0 0 0 0 0 0 0 0 127 0" result="hardAlpha"/>
<feOffset dy="4"/>
<feGaussianBlur stdDeviation="2"/>
<feComposite in2="hardAlpha" operator="out"/>
<feColorMatrix type="matrix" values="0 0 0 0 0 0 0 0 0 0 0 0 0 0 0 0 0 0 0.25 0"/>
<feBlend mode="normal" in2="BackgroundImageFix" result="effect1_dropShadow_8_41"/>
<feBlend mode="normal" in="SourceGraphic" in2="effect1_dropShadow_8_41" result="shape"/>
</filter>
<filter id="filter2_d_8_41" x="133.333" y="100" width="541.333" height="608" filterUnits="userSpaceOnUse" color-interpolation-filters="sRGB">
<feFlood flood-opacity="0" result="BackgroundImageFix"/>
<feColorMatrix in="SourceAlpha" type="matrix" values="0 0 0 0 0 0 0 0 0 0 0 0 0 0 0 0 0 0 127 0" result="hardAlpha"/>
<feOffset dy="4"/>
<feGaussianBlur stdDeviation="2"/>
<feComposite in2="hardAlpha" operator="out"/>
<feColorMatrix type="matrix" values="0 0 0 0 0 0 0 0 0 0 0 0 0 0 0 0 0 0 0.25 0"/>
<feBlend mode="normal" in2="BackgroundImageFix" result="effect1_dropShadow_8_41"/>
<feBlend mode="normal" in="SourceGraphic" in2="effect1_dropShadow_8_41" result="shape"/>
</filter>
<linearGradient id="paint0_linear_8_41" x1="-69.5" y1="-159.5" x2="804" y2="920.5" gradientUnits="userSpaceOnUse">
<stop stop-color="#010005"/>
<stop offset="0.171875" stop-color="#321570"/>
<stop offset="0.348189" stop-color="#17067B"/>
<stop offset="0.526042" stop-color="#16057D"/>
<stop offset="0.708333" stop-color="#0D005A"/>
<stop offset="0.859375" stop-color="#18104A"/>
<stop offset="1" stop-color="#18077E"/>
</linearGradient>
<linearGradient id="paint1_linear_8_41" x1="733.5" y1="85" x2="94.5" y2="662.5" gradientUnits="userSpaceOnUse">
<stop offset="0.0236695" stop-color="#120080" stop-opacity="0.68"/>
<stop offset="1" stop-color="#060126" stop-opacity="0.51"/>
</linearGradient>
<linearGradient id="paint2_linear_8_41" x1="549.999" y1="239.5" x2="77.4994" y2="740" gradientUnits="userSpaceOnUse">
<stop offset="0.0505657" stop-color="#3B1DF1"/>
<stop offset="0.395833" stop-color="#2405E4"/>
<stop offset="0.645833" stop-color="#211854"/>
<stop offset="1" stop-color="#3253FF"/>
</linearGradient>
<linearGradient id="paint3_linear_8_41" x1="578" y1="100" x2="151" y2="700" gradientUnits="userSpaceOnUse">
<stop stop-color="#523FC8"/>
<stop offset="0.5" stop-color="#0D0C30"/>
<stop offset="0.973583" stop-color="#2C0E84"/>
</linearGradient>
</defs>
</svg>
